<svg enable-background="new 0 0 512 512" viewBox="0 0 512 640" xmlns="http://www.w3.org/2000/svg"><path fill="#000000" d="m123.6 394.6c3.3 33.1 6.7 66.3 10 99.4.4 4.1 3.1 7.5 7.5 7.5h142.1 87.7c4.4 0 7.1-3.4 7.5-7.5 3.3-33.1 6.7-66.3 10-99.4.4-4.1-3.7-7.5-7.5-7.5-4.4 0-7.1 3.4-7.5 7.5-3.3 33.1-6.7 66.3-10 99.4l7.5-7.5c-47.4 0-94.8 0-142.1 0-29.2 0-58.4 0-87.7 0l7.5 7.5c-3.3-33.1-6.7-66.3-10-99.4-.4-4.1-3.1-7.5-7.5-7.5-3.8 0-7.9 3.4-7.5 7.5z"/><path fill="#000000" d="m402 109.7c-2.8 28-5.6 56.1-8.4 84.1-.4 4.1 3.7 7.5 7.5 7.5 4.4 0 7.1-3.4 7.5-7.5 2.8-28 5.6-56.1 8.4-84.1.4-4.1-3.7-7.5-7.5-7.5-4.4 0-7.1 3.5-7.5 7.5z"/><path fill="#000000" d="m118.4 193.8c-2.8-28-5.6-56.1-8.4-84.1-.4-4.1-3.1-7.5-7.5-7.5-3.8 0-7.9 3.4-7.5 7.5 2.8 28 5.6 56.1 8.4 84.1.4 4.1 3.1 7.5 7.5 7.5 3.8 0 7.9-3.4 7.5-7.5z"/><path fill="#000000" d="m423.8 102.2c-38.9 0-77.7 0-116.6 0-60.7 0-121.3 0-182 0-12.3 0-24.6 0-36.9 0-6.7 0-6.8-6.3-6.8-11.2 0-6.7 0-13.3 0-20 0-7.3 6.8-6.9 11.9-6.9h147.6 166.5 16.1c8.6 0 6.8 11 6.8 16.6.1 6.3 3 21.1-6.6 21.5-9.6.5-9.7 15.5 0 15 12-.6 21.7-9.6 21.7-21.9 0-6.7 0-13.3 0-20 0-9.5-2.2-17.3-10.4-23-3.6-2.5-8.2-3.2-12.5-3.2-14.9 0-29.8 0-44.7 0-61.8 0-123.6 0-185.4 0-25.9 0-51.8 0-77.8 0-7.1 0-14.3 0-21.4 0-8.2 0-16 .9-21.8 7.8-5.6 6.7-5.1 14.7-5.1 22.8 0 6.8-.4 13.7.5 20.5 1.7 12.2 13.9 17 24.6 17h52 187.7 92.4c9.8 0 9.8-15 .2-15z"/><path fill="#000000" d="m376.7 49.1c-46.4 0-92.7 0-139.1 0-34.1 0-68.2 0-102.3 0 2.5 2.5 5 5 7.5 7.5 0-7.5-.6-14.6 3.4-21.3 3.8-6.3 11.1-9.8 18.3-9.8h19.9 90.5 63.5c4.1 0 8.2-.2 12.3.1 7.7.6 14.7 6.8 17.2 13.8 2 5.4 1.3 11.5 1.3 17.2 0 9.7 15 9.7 15 0 0-8.3.3-16.3-3-24.2-4.6-10.8-14.4-18.7-25.8-21.1-6.6-1.4-13.9-.8-20.5-.8-28.6 0-57.2 0-85.8 0-25.1 0-50.3 0-75.4 0-7 0-14-.3-20.8 1.8-10.4 3.3-18.9 11.7-22.7 21.9-2.7 7.3-2.3 14.8-2.3 22.4 0 4.1 3.4 7.5 7.5 7.5h139.1 102.3c9.6 0 9.6-15-.1-15z"/><path fill="#000000" d="m399.7 186.3c-42.6 0-85.2 0-127.8 0-51.7 0-103.4 0-155.2 0-10.2 0-20.2 2.8-24.8 13.2-3.2 7.2-1.6 15.3-1.1 22.9 2 28.9 3.9 57.9 5.9 86.8 1.6 23.4 3.2 46.7 4.7 70.1.9 12.9 9.6 23 23.1 23h16.6 176 65.1 5.3c8.1 0 14.4-3.8 19.2-10.1 4.5-6 3.9-16.1 4.4-23.3 3.6-52.4 7.1-104.8 10.7-157.2 1-13.8-8.3-24.8-22.1-25.4-9.7-.4-9.6 14.6 0 15s7.1 11.5 6.6 17.9c-.8 11.9-1.6 23.8-2.4 35.7-2.1 31.4-4.3 62.8-6.4 94.2-.6 9.5-1.3 19-1.9 28.5-.4 5.6-2.9 9.5-9.1 9.5-18.2 0-36.4 0-54.6 0-60.3 0-120.6 0-180.9 0-7.7 0-15.5 0-23.2 0-5.1 0-10.9-.4-11.4-7.1-1.5-22-3-44.1-4.5-66.1-2-29.6-4-59.2-6-88.8-.4-5.4-1.9-12.1-1.1-17.5 1.1-7.3 8.5-6.4 13.9-6.4h160 120.9c9.8.1 9.8-14.9.1-14.9z"/><path fill="#000000" d="m277.3 300.4c-7.6 13-25.8 31.8-42.9 24.3-19.6-8.5-12.5-37.4-4.7-51.5 7.3-13.1 26-31.7 42.9-24.3 19.7 8.6 12.6 37.5 4.7 51.5-4.7 8.5 8.2 16 13 7.6 11.2-20 16.5-51.3-3.6-67.8-18.7-15.4-43.8-4.7-58.7 10.5-17.6 18-27 47-16.7 70.9 4.2 9.6 13.4 16.8 23.6 18.8 10.7 2.1 21.6-1.1 30.8-6.6 10.3-6.1 18.6-15.6 24.6-25.8 4.9-8.3-8.1-15.9-13-7.6z"/><path fill="#000000" d="m273.1 238.2c-14.7 11.8-23.7 28.8-26 47.4-1.9 15.6-8.2 29.9-21.1 40.7-7.4 6.2 3.2 16.7 10.6 10.6 14.1-11.7 22.8-28.3 24.9-46.5 2-16.8 8.7-30.9 22.1-41.6 3.2-2.6 2.6-8 0-10.6-3.1-3.1-7.3-2.6-10.5 0z"/></svg>